<?xml version="1.0" encoding="utf-8"?>
<!-- Generator: Adobe Illustrator 27.1.1, SVG Export Plug-In . SVG Version: 6.00 Build 0)  -->
<svg version="1.1" id="Layer_1" xmlns="http://www.w3.org/2000/svg" xmlns:xlink="http://www.w3.org/1999/xlink" x="0px" y="0px"
	 viewBox="0 0 73.1 80" style="enable-background:new 0 0 73.1 80;" xml:space="preserve">
<style type="text/css">
	.st0{fill:#051A4F;}
</style>
<path class="st0" d="M61.7,12.7c-4.4-4.9-10.6-7.9-17.2-8.3c-1.4,0-2.6,0-4,0H5.1v71.3h21.6V53.7h13.1c3.3,0,6.7-0.4,9.9-1.2
	c4.8-1,9.2-3.5,12.5-7.2c3.3-3.7,5.3-8.3,5.8-13.2c0-0.5,0-1,0-1.4C68.4,24.1,66.1,17.6,61.7,12.7z M46.5,30.8
	c-0.2,1.1-0.6,2.2-1.3,3.1c-0.6,0.9-1.4,1.6-2.4,2.1c-0.9,0.5-2,0.8-3.1,0.8c-1.6,0.1-3,0.1-4.6,0.1h-8.5V21.5h12.6
	c1.8,0,3.5,0.6,4.9,1.9c1.3,1.2,2.2,2.9,2.3,4.6C46.6,28.9,46.6,29.9,46.5,30.8z"/>
</svg>
