<svg width="184" height="80" viewBox="0 0 184 80" fill="none" xmlns="http://www.w3.org/2000/svg">
<g clip-path="url(#clip0_12_5)">
<path d="M44.1 51.79C43.99 50.18 43.93 48.79 43.9 47.2C43.9 45.08 43.83 43.3 43.82 41.2C43.8157 40.1192 43.6712 39.0435 43.39 38C43.2224 37.3062 42.9104 36.6555 42.4745 36.0904C42.0386 35.5252 41.4885 35.0583 40.86 34.72C40.1105 34.2919 39.2966 33.988 38.45 33.82C35.7794 33.2122 33.0125 33.1577 30.32 33.66C29.5605 33.7794 28.8183 33.991 28.11 34.29C27.2803 34.6199 26.5366 35.1344 25.9354 35.7946C25.3342 36.4547 24.8912 37.2431 24.64 38.1C24.4288 38.7442 24.3639 39.4275 24.45 40.1C24.462 40.2262 24.4994 40.3486 24.56 40.46L31.12 40.62C31.1033 40.2211 31.1679 39.823 31.31 39.45C31.4089 39.1627 31.572 38.9017 31.7869 38.6868C32.0017 38.472 32.2627 38.3089 32.55 38.21C33.3924 37.9001 34.3176 37.9001 35.16 38.21C35.4435 38.2933 35.7014 38.447 35.9095 38.6568C36.1176 38.8666 36.2691 39.1258 36.35 39.41C36.4014 39.5778 36.4137 39.7552 36.386 39.9285C36.3583 40.1019 36.2912 40.2666 36.19 40.41C36.0027 40.6754 35.7421 40.8804 35.44 41L34.87 41.18C33.96 41.42 33.18 41.59 32.25 41.75C31.51 41.87 30.89 41.98 30.15 42.13C29.2067 42.3192 28.2751 42.5629 27.36 42.86C26.5223 43.1296 25.7541 43.5803 25.11 44.18C24.2389 44.9542 23.6835 46.0222 23.55 47.18C23.4298 47.9385 23.4604 48.7133 23.64 49.46C23.8454 50.4371 24.3163 51.3386 25.0008 52.0654C25.6853 52.7923 26.557 53.3163 27.52 53.58C29.6334 54.2185 31.9032 54.1019 33.94 53.25C34.946 52.863 35.8823 52.1981 36.56 51.36L36.1 48C35.7936 48.4931 35.2434 48.8805 34.71 49.11C34.2014 49.3396 33.6565 49.4783 33.1 49.52C32.684 49.5618 32.2639 49.528 31.86 49.42C31.5051 49.3276 31.1851 49.1328 30.94 48.86C30.7188 48.6392 30.569 48.357 30.51 48.05C30.4542 47.8046 30.4708 47.5484 30.5578 47.3123C30.6448 47.0762 30.7984 46.8705 31 46.72C31.2329 46.5094 31.5046 46.3463 31.8 46.24C32.56 45.96 33.21 45.75 34 45.53C34.896 45.2688 35.7689 44.9344 36.61 44.53C36.707 45.1931 36.707 45.8668 36.61 46.53C36.56 47.0537 36.3851 47.5578 36.1 48L36.56 51.36C36.71 51.83 36.84 52.23 37 52.7C37.0904 52.9441 37.2224 53.1708 37.39 53.37H44.62C44.3087 52.8992 44.1291 52.3536 44.1 51.79Z" fill="white"/>
<path d="M87.92 51.79C87.81 50.18 87.76 48.79 87.72 47.2C87.72 45.08 87.65 43.3 87.63 41.2C87.6276 40.1204 87.4899 39.0454 87.22 38C87.0472 37.3071 86.7322 36.6576 86.2949 36.0929C85.8576 35.5283 85.3077 35.0607 84.68 34.72C83.93 34.2931 83.1163 33.9892 82.27 33.82C79.596 33.2122 76.8259 33.1578 74.13 33.66C73.3737 33.7794 72.6349 33.991 71.93 34.29C71.0973 34.6167 70.3505 35.1301 69.7473 35.7906C69.144 36.4511 68.7002 37.2411 68.45 38.1C68.2439 38.7453 68.1791 39.4274 68.26 40.1C68.2767 40.2252 68.3138 40.3469 68.37 40.46L74.94 40.62C74.9198 40.2218 74.9811 39.8237 75.12 39.45C75.2189 39.1627 75.382 38.9017 75.5969 38.6869C75.8117 38.472 76.0727 38.3089 76.36 38.21C77.2024 37.9001 78.1276 37.9001 78.97 38.21C79.2536 38.2933 79.5114 38.447 79.7195 38.6568C79.9276 38.8667 80.0791 39.1258 80.16 39.41C80.2115 39.5779 80.2238 39.7552 80.196 39.9286C80.1683 40.1019 80.1013 40.2666 80 40.41C79.8149 40.6775 79.5536 40.8831 79.25 41L78.68 41.18C77.77 41.42 76.99 41.59 76.06 41.75C75.32 41.87 74.7 41.98 73.97 42.13C73.0264 42.318 72.0948 42.5618 71.18 42.86C70.3361 43.1224 69.5632 43.5739 68.92 44.18C68.0318 44.9459 67.4612 46.0157 67.32 47.18C67.1998 47.9385 67.2304 48.7133 67.41 49.46C67.6196 50.4353 68.0919 51.3346 68.7758 52.0608C69.4597 52.787 70.3291 53.3123 71.29 53.58C73.4035 54.2186 75.6732 54.1019 77.71 53.25C78.7117 52.8603 79.5941 52.2157 80.27 51.38L79.8 48C79.4936 48.4932 79.0434 48.8806 78.51 49.11C78.0156 49.3302 77.4888 49.4687 76.95 49.52C76.5004 49.569 76.0456 49.5317 75.61 49.41C75.2522 49.3178 74.929 49.1232 74.68 48.85C74.4674 48.6283 74.3218 48.3509 74.26 48.05C74.206 47.8138 74.2185 47.5673 74.2962 47.3378C74.3738 47.1083 74.5136 46.9048 74.7 46.75C74.9358 46.5434 75.2068 46.3809 75.5 46.27C76.26 46 76.92 45.78 77.7 45.56C78.5982 45.2957 79.4742 44.9614 80.32 44.56C80.3976 45.2244 80.3976 45.8956 80.32 46.56C80.2582 47.0748 80.0767 47.568 79.79 48L80.26 51.36C80.4 51.83 80.53 52.23 80.7 52.7C80.7856 52.9486 80.9218 53.1768 81.1 53.37H88.33C88.0586 52.8878 87.9174 52.3433 87.92 51.79Z" fill="white"/>
<path d="M122.16 33.44C120.699 33.21 119.211 33.21 117.75 33.44C115.596 33.7479 113.597 34.74 112.05 36.27C110.341 37.8576 109.298 40.0338 109.13 42.36C108.981 43.7708 109.107 45.197 109.5 46.56C110.057 48.6793 111.319 50.5453 113.08 51.85C114.207 52.7368 115.525 53.3496 116.93 53.64C118.908 54.0628 120.952 54.0628 122.93 53.64C124.335 53.3496 125.653 52.7368 126.78 51.85L122.59 47.28C122.431 47.632 122.204 47.9492 121.923 48.2136C121.641 48.478 121.311 48.6843 120.949 48.8208C120.588 48.9574 120.204 49.0214 119.818 49.0092C119.432 48.997 119.052 48.909 118.7 48.75C118.037 48.4663 117.508 47.9406 117.22 47.28C116.948 46.6828 116.763 46.0497 116.67 45.4C116.46 44.0955 116.49 42.7635 116.76 41.47C116.882 40.798 117.141 40.1582 117.52 39.59C117.936 38.9613 118.584 38.5231 119.323 38.3713C120.061 38.2195 120.83 38.3665 121.46 38.78C121.787 38.9867 122.063 39.2634 122.27 39.59C122.669 40.1515 122.942 40.7929 123.07 41.47C123.332 42.7646 123.359 44.0958 123.15 45.4C123.062 46.0495 122.88 46.6828 122.61 47.28L126.8 51.85C128.561 50.5477 129.821 48.6802 130.37 46.56C130.77 45.1984 130.899 43.7714 130.75 42.36C130.582 40.0338 129.538 37.8576 127.83 36.27C126.29 34.7457 124.303 33.754 122.16 33.44Z" fill="white"/>
<path d="M13.3 44.92H8.3V38.49H11.51C12.13 38.49 12.65 38.49 13.27 38.44C13.6784 38.4258 14.0781 38.3184 14.4386 38.126C14.7991 37.9336 15.1109 37.6613 15.35 37.33C15.6105 36.9807 15.779 36.5715 15.84 36.14C15.8797 35.7778 15.8797 35.4122 15.84 35.05C15.7773 34.3657 15.4598 33.73 14.9505 33.2688C14.4411 32.8076 13.7771 32.5546 13.09 32.56H8.27V53.32H0V26H13.56C14.1 26 14.56 26 15.09 26C17.6224 26.147 19.9929 27.2933 21.6805 29.1872C23.3681 31.0811 24.2347 33.5675 24.09 36.1C24.09 36.28 24.09 36.46 24.09 36.65C23.9117 38.5303 23.1358 40.304 21.8761 41.7112C20.6164 43.1185 18.9391 44.0853 17.09 44.47C15.8485 44.7671 14.5765 44.9181 13.3 44.92Z" fill="white"/>
<path d="M98.75 46.17C99.2812 46.2503 99.8036 46.3809 100.31 46.56C100.533 46.6289 100.732 46.7593 100.884 46.9362C101.036 47.1131 101.135 47.3293 101.17 47.56C101.223 47.7981 101.215 48.0458 101.147 48.28C101.079 48.5142 100.953 48.7275 100.78 48.9C100.429 49.254 99.973 49.4854 99.48 49.56C98.8085 49.6798 98.117 49.6141 97.48 49.37C97.1892 49.2588 96.9188 49.0999 96.68 48.9C96.3556 48.6448 96.1181 48.2955 96 47.9C95.8903 47.5612 95.8395 47.206 95.85 46.85H88.74V47.27C88.7375 47.9089 88.8528 48.5429 89.08 49.14C89.4174 50.0484 89.9699 50.8616 90.69 51.51C91.6035 52.3819 92.7209 53.011 93.94 53.34C96.4499 54.086 99.0961 54.2535 101.68 53.83C102.893 53.6562 104.067 53.2739 105.15 52.7C105.629 52.4516 106.079 52.1497 106.49 51.8C107.428 51.0367 108.11 50.0054 108.446 48.8439C108.782 47.6824 108.755 46.446 108.37 45.3C108.111 44.4079 107.601 43.6094 106.9 43C105.976 42.1795 104.879 41.5779 103.69 41.24L102.88 41.02C101.429 40.611 99.9522 40.297 98.46 40.08C98.04 40.02 97.66 39.94 97.27 39.85C97.0901 39.8112 96.9155 39.7508 96.75 39.67C96.5384 39.5738 96.3728 39.3985 96.2887 39.1817C96.2046 38.9649 96.2086 38.7238 96.3 38.51V38.45C96.5155 38.0625 96.8747 37.7752 97.3 37.65C98.0815 37.3848 98.9286 37.3848 99.71 37.65C100.106 37.764 100.451 38.0113 100.686 38.3502C100.921 38.6891 101.032 39.0988 101 39.51H107.89C107.891 38.7014 107.749 37.899 107.47 37.14C107.199 36.37 106.709 35.6959 106.06 35.2C105.509 34.7511 104.887 34.3964 104.22 34.15C103.577 33.8879 102.906 33.7 102.22 33.59C100.604 33.2969 98.9587 33.2028 97.32 33.31C96.3795 33.3617 95.4457 33.499 94.53 33.72C93.2914 33.9891 92.1313 34.54 91.14 35.33C90.2701 35.9789 89.6207 36.8796 89.28 37.91C89.1129 38.3692 89.0185 38.8517 89 39.34C88.951 40.1632 89.0877 40.9868 89.4 41.75C89.6583 42.4344 90.0595 43.056 90.5768 43.5733C91.094 44.0906 91.7156 44.4917 92.4 44.75C93.0847 45.0279 93.7947 45.2389 94.52 45.38L98.75 46.17Z" fill="white"/>
<path d="M52.7401 35.88C53.6397 35.0738 54.6499 34.4004 55.7401 33.88C57.5388 33.02 59.5956 32.87 61.5001 33.46C62.5291 33.7406 63.4696 34.2791 64.2326 35.0245C64.9955 35.7699 65.5557 36.6977 65.8601 37.72C66.1784 38.6876 66.3339 39.7014 66.3201 40.72V53.32H58.6201V42C58.6118 41.661 58.558 41.3247 58.4601 41C58.367 40.6863 58.2045 40.3976 57.9847 40.1552C57.7648 39.9128 57.4932 39.7231 57.1901 39.6C56.5336 39.3179 55.7965 39.2863 55.1184 39.5111C54.4402 39.736 53.868 40.2016 53.5101 40.82C53.2005 41.3287 53.0411 41.9146 53.0501 42.51V53.34H45.5601V33.82H52.5601L52.7401 35.88Z" fill="white"/>
<path d="M139.08 35.88C139.979 35.0732 140.99 34.3996 142.08 33.88C143.879 33.02 145.936 32.87 147.84 33.46C148.869 33.7406 149.81 34.2791 150.573 35.0245C151.336 35.7699 151.896 36.6977 152.2 37.72C152.519 38.6875 152.675 39.7014 152.66 40.72V53.32H144.91V42C144.912 41.6405 144.858 41.2828 144.75 40.94C144.661 40.6273 144.502 40.3389 144.286 40.0964C144.069 39.8539 143.801 39.6637 143.5 39.54C142.839 39.2697 142.103 39.244 141.425 39.4677C140.747 39.6913 140.171 40.1495 139.8 40.76C139.498 41.2714 139.342 41.8561 139.35 42.45V53.34H131.84V33.82H138.84L139.08 35.88Z" fill="white"/>
<path d="M161.49 33.83H154.19V53.35H161.49V33.83Z" fill="white"/>
<path d="M161.49 26.02H154.19V31.18H161.49V26.02Z" fill="white"/>
<path d="M181.09 50.8C179.706 52.3067 177.871 53.3243 175.86 53.7C174.512 53.9829 173.128 54.0471 171.76 53.89C169.936 53.7162 168.201 53.022 166.76 51.89C165.553 51.0114 164.55 49.8823 163.82 48.58C163.232 47.5938 162.838 46.5042 162.66 45.37C162.379 43.7923 162.461 42.1712 162.9 40.63C163.352 38.8581 164.297 37.251 165.627 35.9957C166.956 34.7405 168.615 33.8889 170.41 33.54C172.443 33.0992 174.551 33.1506 176.56 33.69C178.001 34.0445 179.324 34.7683 180.4 35.79C181.084 36.4201 181.652 37.1646 182.08 37.99C182.602 38.9651 182.841 40.0664 182.77 41.17H176.1C176.036 40.7422 175.888 40.3312 175.665 39.9605C175.442 39.5899 175.148 39.2669 174.8 39.01C174.357 38.6775 173.824 38.4871 173.27 38.4639C172.717 38.4407 172.169 38.5858 171.7 38.88C171.045 39.2828 170.56 39.9129 170.34 40.65C169.761 42.385 169.729 44.2564 170.25 46.01C170.437 46.7714 170.839 47.4625 171.41 48C171.723 48.308 172.105 48.5375 172.524 48.6696C172.943 48.8017 173.387 48.8327 173.82 48.76C174.365 48.6881 174.866 48.4218 175.23 48.01C175.614 47.5835 175.867 47.056 175.96 46.49C176.033 46.1035 176.079 45.7126 176.1 45.32H183.1C183.174 46.3238 183.033 47.3318 182.686 48.2768C182.339 49.2217 181.795 50.0819 181.09 50.8Z" fill="white"/>
</g>
<defs>
<clipPath id="clip0_12_5">
<rect width="183.15" height="80" fill="white"/>
</clipPath>
</defs>
</svg>
